<?xml version="1.0" encoding="UTF-8" standalone="no"?>
<svg
   width="2288.6721"
   zoomAndPan="magnify"
   viewBox="0 0 1716.5041 613.93744"
   height="818.58325"
   preserveAspectRatio="xMidYMid"
   version="1.0"
   id="svg45"
   xmlns="http://www.w3.org/2000/svg"
   xmlns:svg="http://www.w3.org/2000/svg">
  <defs
     id="defs1" />
  <path
     fill="#9dcd5a"
     d="m 603.38667,126.24216 c -76.07418,38.6602 -144.74996,91.6328 -202.2148,156.6446 C 343.71093,217.87496 275.04296,164.91406 198.95703,126.24216 235.52343,51.492163 312.33984,3.0654583e-6 401.17187,3.0654583e-6 490.00781,3.0654583e-6 566.8164,51.492163 603.38667,126.24216 Z m 0,0"
     fill-opacity="1"
     fill-rule="nonzero"
     id="path4" />
  <path
     fill="#0e6133"
     d="M 533.09374,613.93746 H 446.26562 C 399.48046,391.96096 223.11328,217.75386 0.01171476,174.11716 V 87.503863 C 270.26562,133.19136 484.10156,344.81246 533.09374,613.93746 Z m 0,0"
     fill-opacity="1"
     fill-rule="nonzero"
     id="path5" />
  <path
     fill="#0e6133"
     d="M 355.91406,613.93746 H 266.21484 C 226.9414,488.48046 126.59374,390.02346 0.01171476,353.38286 v -89.2422 C 174.40624,304.89456 312.22656,440.69136 355.91406,613.93746 Z m 0,0"
     fill-opacity="1"
     fill-rule="nonzero"
     id="path6" />
  <path
     fill="#0e6133"
     d="M 176.71093,613.93746 H 166.41406 C 74.515625,613.93746 -5.2448241e-6,539.42576 -5.2448241e-6,447.52736 v -5.4141 C 80.027345,472.45316 144.20703,535.00386 176.69921,613.93746 Z m 0,0"
     fill-opacity="1"
     fill-rule="nonzero"
     id="path7" />
  <path
     fill="#77ad3d"
     d="m 269.27734,613.93746 h 86.82812 c 46.79297,-221.9765 223.15235,-396.1836 446.25781,-439.8203 V 87.503863 C 532.10937,133.19136 318.27343,344.81246 269.27734,613.93746 Z m 0,0"
     fill-opacity="1"
     fill-rule="nonzero"
     id="path8" />
  <path
     fill="#77ad3d"
     d="m 446.46484,613.93746 h 89.69531 c 39.26953,-125.457 139.61722,-223.914 266.20312,-260.5546 v -89.2422 c -174.3906,40.7539 -312.21484,176.5507 -355.89843,349.7968 z m 0,0"
     fill-opacity="1"
     fill-rule="nonzero"
     id="path9" />
  <path
     fill="#77ad3d"
     d="m 625.66797,613.93746 h 10.2891 c 91.8984,0 166.414,-74.5117 166.414,-166.4101 v -5.4141 c -80.0195,30.3399 -144.207,92.8906 -176.6914,171.8242 z m 0,0"
     fill-opacity="1"
     fill-rule="nonzero"
     id="path10" />
  <path
     fill="#0e6133"
     d="m 901.50387,246.73046 h -35.1562 V 71.761763 h 54.875 l 32.8281,137.578097 32.582,-137.578097 h 54.25003 V 246.73046 h -35.1523 v -118.3476 c 0,-3.4024 0.047,-8.1719 0.125,-14.3047 0.078,-6.1289 0.125,-10.8594 0.125,-14.187497 L 971.81247,246.73046 h -36.6211 L 901.26567,99.890663 c 0,3.328097 0.039,8.046797 0.125,14.187497 0.078,6.1328 0.1171,10.9023 0.1171,14.3047 v 118.3476 z m 0,0"
     fill-opacity="1"
     fill-rule="nonzero"
     id="path11" />
  <path
     fill="#0e6133"
     d="m 1078.1172,131.34376 c 9.2266,-11.3984 25.0625,-17.0938 47.5235,-17.0938 14.6132,0 27.5976,2.8125 38.9453,8.4258 11.3476,5.6211 17.0234,16.2188 17.0234,31.8125 v 59.3477 c 0,4.1094 0.078,9.1015 0.2422,14.957 0.2422,4.4414 0.9336,7.4414 2.0781,9.0274 1.1524,1.5859 2.8555,2.8945 5.1485,3.9179 v 4.9844 h -37.9727 c -1.0664,-2.6094 -1.7969,-5.0664 -2.2031,-7.3594 -0.4024,-2.2969 -0.7305,-4.9023 -0.9805,-7.8359 -4.8242,5.0664 -10.375,9.3789 -16.6562,12.9414 -7.5157,4.1914 -16.0118,6.293 -25.4805,6.293 -12.086,0 -22.0664,-3.3399 -29.9453,-10.0274 -7.8711,-6.6914 -11.8125,-16.1601 -11.8125,-28.4336 0,-15.9023 6.3242,-27.4219 18.9765,-34.5429 6.9453,-3.875 17.1446,-6.6446 30.625,-8.3086 l 11.875,-1.4219 c 6.4453,-0.793 11.0664,-1.7774 13.8477,-2.961 4.9844,-2.0625 7.4726,-5.2617 7.4726,-9.6171 0,-5.2969 -1.8984,-8.961 -5.6992,-10.9805 -3.7929,-2.0234 -9.3672,-3.0274 -16.7148,-3.0274 -8.25,0 -14.0899,1.9844 -17.5156,5.9375 -2.4532,2.9219 -4.0821,6.8868 -4.9063,11.8711 h -33.6797 c 0.7305,-11.3203 4.0039,-20.6171 9.7969,-27.8945 z m 25.961,90.9375 c 3.2695,2.6094 7.2695,3.918 12.0078,3.918 7.5156,0 14.4375,-2.1289 20.7578,-6.4063 6.3242,-4.2695 9.6172,-12.0664 9.8554,-23.3828 v -12.5859 c -2.1992,1.3476 -4.4335,2.4296 -6.6796,3.2617 -2.2422,0.832 -5.3282,1.6094 -9.2422,2.3164 l -7.8399,1.4219 c -7.3437,1.2695 -12.6172,2.8086 -15.8008,4.6289 -5.3906,3.0859 -8.082,7.875 -8.082,14.3632 0,5.7735 1.6758,9.9258 5.0235,12.4649 z m 0,0"
     fill-opacity="1"
     fill-rule="nonzero"
     id="path12" />
  <path
     fill="#0e6133"
     d="m 1304.5782,123.27346 c 10.4531,6.4844 16.4531,17.6523 18.0039,33.4765 h -34.9063 c -0.4844,-4.3554 -1.7539,-7.7968 -3.793,-10.3242 -3.8398,-4.5859 -10.375,-6.8789 -19.6015,-6.8789 -7.5899,0 -13.0039,1.1485 -16.2266,3.4375 -3.2344,2.293 -4.8437,4.9844 -4.8437,8.0703 0,3.8789 1.7109,6.6875 5.1445,8.4258 3.4297,1.8203 15.5508,4.9453 36.3828,9.3789 13.8711,3.168 24.2852,7.957 31.2305,14.3633 6.8633,6.4844 10.289,14.6055 10.289,24.332 0,12.8164 -4.9218,23.2813 -14.7539,31.3946 -9.8398,8.1093 -25.0547,12.1679 -45.625,12.1679 -20.5781,0 -36.4804,-4.2968 -46.4804,-12.8828 -10.0078,-8.5859 -15.0039,-19.5273 -15.0039,-32.8203 h 35.3906 c 0.7305,6.0156 2.3281,10.2891 4.7851,12.8164 4.3243,4.5078 12.3321,6.7695 24.0039,6.7695 6.8633,0 12.3125,-0.9804 16.3555,-2.9648 4.0391,-1.9766 6.0547,-4.9414 6.0547,-8.9023 0,-3.9571 -1.6328,-6.6875 -4.8984,-8.6641 -3.2696,-1.9844 -15.3907,-5.3828 -36.3789,-10.2109 -15.1055,-3.6485 -25.7618,-8.1915 -31.9649,-13.6563 -6.2031,-5.375 -9.3047,-13.1328 -9.3047,-23.2617 0,-11.9492 4.836,-22.2227 14.5157,-30.8086 9.6679,-8.5859 23.289,-12.8789 40.8398,-12.8789 17.5508,0 30.25,3.2109 40.7852,9.6094 z m 0,0"
     fill-opacity="1"
     fill-rule="nonzero"
     id="path13" />
  <path
     fill="#0e6133"
     d="m 1413.2188,222.63676 v 25.2812 l -16.5391,0.5899 c -16.4922,0.5507 -27.7578,-2.2149 -33.8008,-8.3125 -3.914,-3.875 -5.875,-9.8555 -5.875,-17.9258 v -79.6485 h -18.6132 v -24.0976 h 18.6132 V 82.441363 h 34.543 v 36.082097 h 21.6797 v 24.0976 h -21.6797 v 68.3711 c 0,5.3008 0.6914,8.6094 2.0781,9.9063 1.3946,1.3086 5.6367,1.9609 12.7383,1.9609 1.0586,0 2.1875,-0.02 3.3711,-0.059 1.1875,-0.043 2.3438,-0.1015 3.4922,-0.1875 z m 0,0"
     fill-opacity="1"
     fill-rule="nonzero"
     id="path14" />
  <path
     fill="#0e6133"
     d="m 1549.9024,208.73826 c -0.9063,7.6758 -5.0235,15.4727 -12.375,23.3906 -11.4297,12.586 -27.4336,18.879 -48.0117,18.879 -16.9766,0 -31.9649,-5.2969 -44.9454,-15.9063 -12.9804,-10.6055 -19.4765,-27.8516 -19.4765,-51.7578 0,-22.3906 5.8554,-39.5664 17.5781,-51.5234 11.7148,-11.9454 26.9258,-17.9258 45.6289,-17.9258 11.1055,0 21.1016,2.0234 30.0039,6.0508 8.8985,4.0429 16.25,10.4023 22.043,19.1132 5.2305,7.6758 8.6211,16.5782 10.1601,26.7032 0.8946,5.9414 1.2696,14.4882 1.1055,25.6406 h -91.3711 c 0.4883,12.9805 4.6914,22.0781 12.6172,27.3047 4.8203,3.25 10.6211,4.8711 17.3867,4.8711 7.1875,0 13.0235,-1.9766 17.5196,-5.9375 2.4453,-2.1407 4.6093,-5.1016 6.496,-8.9024 z m -34.543,-39.6445 c -0.5703,-8.9453 -3.3672,-15.7344 -8.3984,-20.3633 -5.0235,-4.625 -11.2422,-6.9414 -18.6719,-6.9414 -8.082,0 -14.3516,2.457 -18.7969,7.3555 -4.457,4.9062 -7.25,11.5547 -8.3945,19.9492 z m 0,0"
     fill-opacity="1"
     fill-rule="nonzero"
     id="path15" />
  <path
     fill="#0e6133"
     d="m 1642.25,148.56246 c -14.0468,0 -23.4765,4.4336 -28.2929,13.293 -2.6993,4.9844 -4.0352,12.668 -4.0352,23.0274 v 61.8476 h -35.1562 v -129.3867 h 33.3203 v 22.5586 c 5.3867,-8.6289 10.0742,-14.5274 14.0859,-17.6914 6.5352,-5.3008 15.0195,-7.961 25.4805,-7.961 0.6445,0 1.1992,0.02 1.6523,0.059 0.4414,0.047 1.4492,0.1016 3.0039,0.1875 v 34.6602 c -2.2031,-0.2305 -4.164,-0.3945 -5.8789,-0.4766 -1.7187,-0.078 -3.1055,-0.1172 -4.164,-0.1172 z m 0,0"
     fill-opacity="1"
     fill-rule="nonzero"
     id="path16" />
  <path
     fill="#0e6133"
     d="m 977.67967,433.17186 c -9.957,5.9414 -22.207,8.9024 -36.7461,8.9024 -23.9219,0 -43.5234,-8.0313 -58.789,-24.0938 -15.9258,-16.1406 -23.8829,-38.2305 -23.8829,-66.2422 0,-28.0156 8.0352,-51.0469 24.125,-68.1367 16.086,-17.0937 37.3516,-25.6406 63.8125,-25.6406 22.9454,0 41.375,5.6406 55.30083,16.9179 13.9141,11.2774 21.9063,25.3438 23.9453,42.1954 h -37.10933 c -2.8633,-11.9454 -9.8477,-20.3008 -20.9414,-25.0508 -6.2032,-2.6055 -13.1016,-3.9141 -20.6954,-3.9141 -14.5351,0 -26.4843,5.3164 -35.8281,15.9649 -9.3515,10.6484 -14.0312,26.6406 -14.0312,48.0156 0,21.3789 5.0664,36.7578 15.1875,45.6992 10.1172,8.9453 21.6406,13.418 34.539,13.418 12.9024,0 23.0313,-3.5391 31.1133,-10.625 8.0742,-7.086 13.0586,-16.3633 14.9414,-27.836 h -41.7695 v -29.2031 h 75.19923 v 93.9024 h -24.9883 l -3.79293,-21.8438 c -7.2735,8.3164 -13.8086,14.1719 -19.6016,17.5703 z m 0,0"
     fill-opacity="1"
     fill-rule="nonzero"
     id="path17" />
  <path
     fill="#0e6133"
     d="m 1126.3711,339.27346 c -14.0508,0 -23.4804,4.4336 -28.289,13.2969 -2.7032,4.9843 -4.0391,12.664 -4.0391,23.0312 v 61.8438 h -35.1523 v -129.3829 h 33.3125 v 22.5508 c 5.3906,-8.625 10.082,-14.5273 14.0898,-17.6914 6.5352,-5.2969 15.0195,-7.957 25.4766,-7.957 0.6484,0 1.2109,0.02 1.6523,0.062 0.4492,0.039 1.457,0.1015 3.0078,0.1797 v 34.6679 c -2.2031,-0.2382 -4.164,-0.3984 -5.8789,-0.4765 -1.7148,-0.086 -3.1055,-0.125 -4.1601,-0.125 z m 0,0"
     fill-opacity="1"
     fill-rule="nonzero"
     id="path18" />
  <path
     fill="#0e6133"
     d="m 1271.1328,399.46096 c -0.9062,7.6797 -5.0234,15.4726 -12.375,23.3906 -11.4296,12.5859 -27.4336,18.8789 -48.0078,18.8789 -16.9804,0 -31.9609,-5.2969 -44.9492,-15.9062 -12.9805,-10.6055 -19.4766,-27.8516 -19.4766,-51.7539 0,-22.3946 5.8555,-39.5665 17.5821,-51.5274 11.7109,-11.9453 26.9297,-17.9258 45.625,-17.9258 11.1054,0 21.1015,2.0235 30.0039,6.0547 8.8984,4.0391 16.25,10.3985 22.043,19.1094 5.2343,7.6758 8.621,16.5781 10.1679,26.7031 0.8906,5.9414 1.2617,14.4883 1.1016,25.6406 h -91.375 c 0.4922,12.9844 4.6953,22.0821 12.6172,27.3047 4.8203,3.25 10.6211,4.875 17.3906,4.875 7.1836,0 13.0234,-1.9804 17.5156,-5.9414 2.4531,-2.1406 4.6094,-5.1015 6.4961,-8.9023 z m -34.5312,-39.6446 c -0.5664,-8.9375 -3.3672,-15.7343 -8.3945,-20.3632 -5.0274,-4.625 -11.2461,-6.9414 -18.6758,-6.9414 -8.0781,0 -14.3516,2.457 -18.7969,7.3632 -4.457,4.8985 -7.25,11.5469 -8.3945,19.9414 z m 0,0"
     fill-opacity="1"
     fill-rule="nonzero"
     id="path19" />
  <path
     fill="#0e6133"
     d="m 1410.6407,399.46096 c -0.9063,7.6797 -5.0235,15.4726 -12.375,23.3906 -11.4297,12.5859 -27.4336,18.8789 -48.0118,18.8789 -16.9804,0 -31.9648,-5.2969 -44.9453,-15.9062 -12.9804,-10.6055 -19.4765,-27.8516 -19.4765,-51.7539 0,-22.3946 5.8554,-39.5665 17.5781,-51.5274 11.7148,-11.9453 26.9297,-17.9258 45.625,-17.9258 11.1015,0 21.1055,2.0235 30.0078,6.0547 8.8984,4.0391 16.25,10.3985 22.043,19.1094 5.2265,7.6758 8.6211,16.5781 10.1601,26.7031 0.8946,5.9414 1.2696,14.4883 1.1094,25.6406 h -91.375 c 0.4922,12.9844 4.6875,22.0821 12.6172,27.3047 4.8203,3.25 10.6133,4.875 17.3867,4.875 7.1875,0 13.0273,-1.9804 17.5195,-5.9414 2.4453,-2.1406 4.6094,-5.1015 6.4961,-8.9023 z m -34.543,-39.6446 c -0.5664,-8.9375 -3.3711,-15.7343 -8.3945,-20.3632 -5.0235,-4.625 -11.2461,-6.9414 -18.6758,-6.9414 -8.0782,0 -14.3516,2.457 -18.8008,7.3632 -4.457,4.8985 -7.2422,11.5469 -8.3906,19.9414 z m 0,0"
     fill-opacity="1"
     fill-rule="nonzero"
     id="path20" />
  <path
     fill="#0e6133"
     d="m 1498.7032,333.10156 c -11.836,0 -19.9649,4.875 -24.3711,14.6055 -2.2813,5.1484 -3.4297,11.7109 -3.4297,19.7031 v 70.0352 h -34.7852 v -129.1524 h 33.6797 v 18.8711 c 4.4844,-6.6484 8.7383,-11.4297 12.7383,-14.3633 7.1875,-5.2265 16.289,-7.8359 27.3086,-7.8359 13.7969,0 25.0976,3.5039 33.8633,10.5039 8.7851,7.0078 13.1679,18.6172 13.1679,34.8359 v 87.1328 h -35.7617 v -78.7031 c 0,-6.8125 -0.9453,-12.0312 -2.8086,-15.6758 -3.4297,-6.6445 -9.9726,-9.9687 -19.6015,-9.9687 z m 0,0"
     fill-opacity="1"
     fill-rule="nonzero"
     id="path21" />
  <path
     fill="#0e6133"
     d="m 1685.9024,117.48046 v 4.8359 h -8.4336 v 22.4844 h -5.9258 v -22.4844 h -8.4766 v -4.8359 z m 0,0"
     fill-opacity="1"
     fill-rule="nonzero"
     id="path22" />
  <path
     fill="#0e6133"
     d="m 1694.7461,144.80076 h -5.4961 v -27.3203 h 8.5703 l 5.125,21.4883 5.086,-21.4883 h 8.4726 v 27.3203 h -5.4882 v -18.4804 c 0,-0.5313 0,-1.2774 0.023,-2.2305 0.016,-0.957 0.016,-1.6992 0.016,-2.2149 l -5.3398,22.9258 H 1700 l -5.2968,-22.9258 c 0,0.5157 0,1.2579 0.023,2.2149 0.01,0.9531 0.019,1.6992 0.019,2.2305 z m 0,0"
     fill-opacity="1"
     fill-rule="nonzero"
     id="path23" />
  <path
     fill="#0e6133"
     d="m 881.74607,465.03516 h 9.0703 l 21.4766,59.1836 h -8.7852 l -5.9961,-17.7305 h -23.4101 l -6.3984,17.7305 h -8.2266 l 22.2812,-59.1836 z m 13.1758,34.9258 -8.9805,-26.1485 -9.5507,26.1485 z m 0,0"
     fill-opacity="1"
     fill-rule="nonzero"
     id="path24" />
  <path
     fill="#0e6133"
     d="m 942.60937,482.79686 c 1.3594,0.9453 2.7461,2.3164 4.168,4.1094 v -5.4375 h 6.6953 v 39.2383 c 0,5.4843 -0.8047,9.8047 -2.4063,12.9765 -2.9961,5.8555 -8.6601,8.7774 -16.9804,8.7774 -4.6328,0 -8.5313,-1.0469 -11.6836,-3.125 -3.1602,-2.0781 -4.9219,-5.3399 -5.3008,-9.7774 h 7.3672 c 0.3476,1.9336 1.0469,3.4219 2.0781,4.4766 1.6367,1.6133 4.1953,2.418 7.6992,2.418 5.5313,0 9.1446,-1.961 10.8594,-5.8907 1.0156,-2.3125 1.4805,-6.4336 1.4023,-12.3711 -1.4414,2.2032 -3.1914,3.8477 -5.2187,4.9141 -2.0274,1.0742 -4.7227,1.6133 -8.0703,1.6133 -4.6602,0 -8.7266,-1.6563 -12.2227,-4.9727 -3.4883,-3.3203 -5.2383,-8.8007 -5.2383,-16.4648 0,-7.2266 1.7618,-12.8672 5.2852,-16.918 3.5156,-4.0664 7.7578,-6.082 12.7383,-6.082 3.3672,0 6.3086,0.832 8.8281,2.4961 z m 0.8828,7.7735 c -2.1914,-2.5743 -4.9844,-3.8672 -8.375,-3.8672 -5.0742,0 -8.5469,2.4023 -10.4219,7.164 -0.9843,2.5625 -1.4843,5.9024 -1.4843,10.0313 0,4.8633 0.9843,8.5703 2.9453,11.1054 1.9609,2.5391 4.5976,3.8086 7.9179,3.8086 5.1875,0 8.8282,-2.3593 10.9415,-7.0586 1.1796,-2.6562 1.7617,-5.7656 1.7617,-9.3046 0,-5.3477 -1.0938,-9.3125 -3.2852,-11.8829 z m 0,0"
     fill-opacity="1"
     fill-rule="nonzero"
     id="path25" />
  <path
     fill="#0e6133"
     d="m 964.70317,481.07426 h 6.8984 v 7.4492 c 0.5664,-1.4531 1.9492,-3.2188 4.1523,-5.2969 2.1953,-2.0859 4.7344,-3.1289 7.6055,-3.1289 0.1367,0 0.3672,0.01 0.6836,0.043 0.3242,0.027 0.875,0.078 1.6562,0.164 v 7.6485 c -0.4257,-0.082 -0.8281,-0.1289 -1.1914,-0.1602 -0.3671,-0.031 -0.7578,-0.043 -1.1875,-0.043 -3.6523,0 -6.457,1.1797 -8.4218,3.5235 -1.961,2.3554 -2.9453,5.0586 -2.9453,8.1211 v 24.8125 h -7.2579 v -43.1446 z m 0,0"
     fill-opacity="1"
     fill-rule="nonzero"
     id="path26" />
  <path
     fill="#0e6133"
     d="m 1023.2539,485.37886 c 3.8164,3.7032 5.7266,9.1524 5.7266,16.3399 0,7.1875 -1.6875,12.6953 -5.0469,17.2344 -3.3594,4.5351 -8.5742,6.8007 -15.6445,6.8007 -5.8945,0 -10.57423,-2.0117 -14.04303,-6.0195 -3.4726,-4.0117 -5.1992,-9.4023 -5.1992,-16.1601 0,-7.2422 1.8281,-13.0079 5.4805,-17.3008 3.6523,-4.3008 8.55863,-6.4414 14.72653,-6.4414 5.5274,0 10.1953,1.8476 14.0118,5.5508 z m -4.5078,28.668 c 1.7656,-3.6289 2.6485,-7.6797 2.6485,-12.125 0,-4.0195 -0.6368,-7.3008 -1.918,-9.8164 -2.0156,-3.9687 -5.5,-5.957 -10.4336,-5.957 -4.3828,0 -7.5703,1.6953 -9.55863,5.0742 -1.9922,3.3828 -2.9844,7.4609 -2.9844,12.2344 0,4.7695 0.9922,8.4101 2.9844,11.4687 1.98833,3.0508 5.15233,4.586 9.48053,4.586 4.7461,0 8.0078,-1.8164 9.7695,-5.4532 z m 0,0"
     fill-opacity="1"
     fill-rule="nonzero"
     id="path27" />
  <path
     fill="#0e6133"
     d="m 1066.3828,483.36716 c 3.0469,2.3633 4.8829,6.4336 5.5,12.211 h -7.0586 c -0.4179,-2.6602 -1.4101,-4.8711 -2.9375,-6.6328 -1.5351,-1.754 -3.9882,-2.6329 -7.371,-2.6329 -4.6211,0 -7.9258,2.25 -9.9102,6.7579 -1.2852,2.9218 -1.9258,6.5351 -1.9258,10.8164 0,4.289 0.918,7.957 2.7422,10.914 1.8281,2.9571 4.6992,4.4297 8.6133,4.4297 3.0078,0 5.3945,-0.918 7.1601,-2.7539 1.7539,-1.8398 2.9727,-4.3437 3.6407,-7.5195 h 7.0586 c -0.8047,5.7187 -2.8243,9.9062 -6.0391,12.5429 -3.2227,2.6524 -7.3516,3.9688 -12.375,3.9688 -5.6406,0 -10.1367,-2.0586 -13.4961,-6.1836 -3.3633,-4.1172 -5.0352,-9.2734 -5.0352,-15.4492 0,-7.5664 1.836,-13.4688 5.5157,-17.6875 3.6875,-4.2149 8.3672,-6.3242 14.0625,-6.3242 4.8593,0 8.8203,1.1757 11.8672,3.5429 z m 0,0"
     fill-opacity="1"
     fill-rule="nonzero"
     id="path28" />
  <path
     fill="#0e6133"
     d="m 1079.1407,464.83206 h 7.246 v 22.0742 c 1.7149,-2.168 3.2735,-3.7031 4.6368,-4.5977 2.3398,-1.5312 5.25,-2.2929 8.7461,-2.2929 6.2578,0 10.5,2.1914 12.7265,6.5703 1.2071,2.3945 1.8164,5.7031 1.8164,9.957 v 27.6758 h -7.4531 v -27.1914 c 0,-3.1641 -0.4062,-5.4922 -1.207,-6.9727 -1.3164,-2.3672 -3.7813,-3.5429 -7.4063,-3.5429 -3.0078,0 -5.7383,1.0351 -8.1836,3.1093 -2.4453,2.0664 -3.664,5.9805 -3.664,11.7227 v 22.8867 h -7.25 v -59.3867 z m 0,0"
     fill-opacity="1"
     fill-rule="nonzero"
     id="path29" />
  <path
     fill="#0e6133"
     d="m 1151.6875,482.25786 c 2.8477,1.4453 5.0313,3.3007 6.5235,5.5859 1.4414,2.1719 2.4023,4.7109 2.8828,7.6094 0.4258,1.9882 0.6406,5.1601 0.6406,9.5156 h -31.3867 c 0.1367,4.3945 1.1601,7.918 3.0742,10.5625 1.9219,2.6523 4.8945,3.9805 8.9141,3.9805 3.7578,0 6.7578,-1.2618 8.9961,-3.7657 1.2461,-1.4609 2.1406,-3.1484 2.6562,-5.0625 h 7.1367 c -0.1953,1.5821 -0.8125,3.3477 -1.875,5.2969 -1.0664,1.9453 -2.25,3.543 -3.5586,4.7734 -2.1797,2.1446 -4.8867,3.6016 -8.1211,4.3477 -1.7343,0.4258 -3.6914,0.6406 -5.875,0.6406 -5.3398,0 -9.8632,-1.9492 -13.5703,-5.8672 -3.7148,-3.9062 -5.5586,-9.3789 -5.5586,-16.4179 0,-7.0469 1.8633,-12.5625 5.6016,-16.8828 3.7305,-4.3282 8.625,-6.4844 14.6562,-6.4844 3.0469,0 5.9883,0.7187 8.8516,2.1523 z m 2.5938,16.9453 c -0.293,-3.1485 -0.9727,-5.6563 -2.0391,-7.5313 -1.9687,-3.4961 -5.2539,-5.2422 -9.8672,-5.2422 -3.3008,0 -6.0703,1.2071 -8.3125,3.6055 -2.2422,2.3945 -3.4218,5.4648 -3.5508,9.168 z m 0,0"
     fill-opacity="1"
     fill-rule="nonzero"
     id="path30" />
  <path
     fill="#0e6133"
     d="m 1170.9219,481.07426 h 7.1758 v 6.1171 c 1.7148,-2.121 3.2773,-3.664 4.668,-4.6328 2.3945,-1.6367 5.1015,-2.4609 8.1367,-2.4609 3.4453,0 6.207,0.8398 8.3086,2.5391 1.1718,0.9648 2.25,2.3945 3.2109,4.2695 1.6211,-2.3086 3.5078,-4.0195 5.6875,-5.1367 2.1797,-1.1133 4.6211,-1.6719 7.3281,-1.6719 5.8047,0 9.7539,2.0898 11.8477,6.2812 1.1289,2.254 1.6953,5.293 1.6953,9.1094 v 28.7188 h -7.5352 v -29.9727 c 0,-2.8711 -0.7187,-4.8515 -2.1484,-5.9219 -1.4414,-1.0781 -3.1914,-1.6211 -5.2578,-1.6211 -2.8555,0 -5.3008,0.9571 -7.3516,2.8672 -2.0508,1.9063 -3.0859,5.0977 -3.0859,9.5547 v 25.0938 h -7.3633 v -28.1641 c 0,-2.9219 -0.3516,-5.0625 -1.0469,-6.4062 -1.1054,-2.0039 -3.1601,-3.0235 -6.164,-3.0235 -2.7422,0 -5.2266,1.0703 -7.4688,3.1875 -2.2422,2.125 -3.3594,5.9571 -3.3594,11.5196 v 22.8867 h -7.25 v -43.1446 z m 0,0"
     fill-opacity="1"
     fill-rule="nonzero"
     id="path31" />
  <path
     fill="#0e6133"
     d="m 1239.6563,465.03516 h 7.3672 v 8.2227 h -7.3672 z m 0,16.2422 h 7.3672 v 42.9531 h -7.3672 z m 0,0"
     fill-opacity="1"
     fill-rule="nonzero"
     id="path32" />
  <path
     fill="#0e6133"
     d="m 1286.5,483.36716 c 3.0469,2.3633 4.8828,6.4336 5.5039,12.211 h -7.0547 c -0.4257,-2.6602 -1.414,-4.8711 -2.9453,-6.6328 -1.5312,-1.754 -3.9882,-2.6329 -7.3711,-2.6329 -4.6132,0 -7.9218,2.25 -9.9062,6.7579 -1.2891,2.9218 -1.9297,6.5351 -1.9297,10.8164 0,4.289 0.918,7.957 2.7422,10.914 1.8281,2.9571 4.6992,4.4297 8.6172,4.4297 3.0039,0 5.3945,-0.918 7.1601,-2.7539 1.75,-1.8398 2.9727,-4.3437 3.6407,-7.5195 h 7.0586 c -0.8047,5.7187 -2.8243,9.9062 -6.043,12.5429 -3.2188,2.6524 -7.3516,3.9688 -12.375,3.9688 -5.6406,0 -10.1367,-2.0586 -13.4961,-6.1836 -3.3594,-4.1172 -5.0352,-9.2734 -5.0352,-15.4492 0,-7.5664 1.836,-13.4688 5.5196,-17.6875 3.6836,-4.2149 8.3672,-6.3242 14.0586,-6.3242 4.8593,0 8.8242,1.1757 11.8671,3.5429 z m 0,0"
     fill-opacity="1"
     fill-rule="nonzero"
     id="path33" />
  <path
     fill="#0e6133"
     d="m 1322.3828,498.10546 c 1.6602,-0.2148 2.7813,-0.9141 3.336,-2.0898 0.3281,-0.6524 0.4883,-1.5743 0.4883,-2.793 0,-2.4766 -0.8829,-4.2813 -2.6289,-5.3984 -1.754,-1.1211 -4.2696,-1.6758 -7.543,-1.6758 -3.7735,0 -6.4531,1.0234 -8.0352,3.0742 -0.8867,1.1406 -1.4609,2.8203 -1.7226,5.0664 h -6.7735 c 0.1289,-5.332 1.8555,-9.0469 5.1641,-11.1367 3.3125,-2.0899 7.1602,-3.1367 11.5312,-3.1367 5.0743,0 9.1875,0.9687 12.3516,2.9062 3.1367,1.9297 4.7109,4.9414 4.7109,9.0195 v 24.8594 c 0,0.7539 0.1563,1.3594 0.4727,1.8164 0.3125,0.461 0.9609,0.6797 1.9414,0.6797 0.3281,0 0.6797,-0.016 1.0899,-0.062 0.4062,-0.039 0.832,-0.1015 1.289,-0.1797 v 5.3633 c -1.125,0.3203 -1.9883,0.5274 -2.5781,0.6055 -0.5938,0.078 -1.4024,0.125 -2.418,0.125 -2.4961,0 -4.3086,-0.8828 -5.4414,-2.6641 -0.5898,-0.9453 -1.0039,-2.2734 -1.2461,-3.9844 -1.4844,1.9258 -3.6015,3.6133 -6.3672,5.0274 -2.7695,1.4219 -5.8164,2.1367 -9.1406,2.1367 -4.0039,0 -7.2695,-1.2187 -9.8203,-3.6484 -2.543,-2.4219 -3.8047,-5.4571 -3.8047,-9.1133 0,-3.9961 1.25,-7.0938 3.7461,-9.293 2.5,-2.2031 5.7734,-3.5547 9.8359,-4.0742 l 11.5625,-1.4531 z m -15.2734,19.5899 c 1.5273,1.207 3.3359,1.8046 5.4375,1.8046 2.5469,0 5.0234,-0.5859 7.4063,-1.7656 4.0351,-1.9609 6.0429,-5.164 6.0429,-9.6094 v -5.8398 c -0.8828,0.5703 -2.0195,1.0352 -3.4219,1.4141 -1.3906,0.375 -2.7617,0.6484 -4.0976,0.8007 l -4.3906,0.5704 c -2.625,0.3398 -4.5938,0.9023 -5.9219,1.6406 -2.2461,1.2578 -3.3594,3.2695 -3.3594,6.0273 0,2.0977 0.7578,3.7383 2.293,4.9453 z m 0,0"
     fill-opacity="1"
     fill-rule="nonzero"
     id="path34" />
  <path
     fill="#0e6133"
     d="m 1345.3438,465.03516 h 7.2539 v 59.1836 h -7.2539 z m 0,0"
     fill-opacity="1"
     fill-rule="nonzero"
     id="path35" />
  <path
     fill="#0e6133"
     d="m 866.35937,540.54296 h 8.1016 v 59.1836 h -8.1016 z m 0,0"
     fill-opacity="1"
     fill-rule="nonzero"
     id="path36" />
  <path
     fill="#0e6133"
     d="m 886.51167,556.58206 h 6.8868 v 6.1211 c 2.0429,-2.5313 4.2031,-4.336 6.4843,-5.4414 2.2891,-1.1055 4.8243,-1.6563 7.6172,-1.6563 6.1172,0 10.2617,2.1328 12.4141,6.4063 1.1797,2.3359 1.7734,5.6836 1.7734,10.0273 v 27.6758 h -7.3672 v -27.1914 c 0,-2.625 -0.3867,-4.7461 -1.1679,-6.3594 -1.2891,-2.6914 -3.625,-4.0312 -7.0117,-4.0312 -1.7149,0 -3.125,0.1757 -4.2344,0.5273 -1.9883,0.5859 -3.7344,1.7773 -5.2344,3.543 -1.2109,1.4218 -1.9922,2.8945 -2.3555,4.4179 -0.3672,1.5196 -0.5507,3.6836 -0.5507,6.5039 v 22.6016 h -7.25 v -43.1445 z m 0,0"
     fill-opacity="1"
     fill-rule="nonzero"
     id="path37" />
  <path
     fill="#0e6133"
     d="m 956.10547,557.90626 c 1.293,0.8047 2.7422,2.2148 4.3789,4.2383 v -21.8047 h 6.9727 v 59.3867 h -6.5274 v -5.9961 c -1.6875,2.6602 -3.6836,4.5742 -5.9805,5.7656 -2.3046,1.1758 -4.9296,1.7774 -7.9062,1.7774 -4.7891,0 -8.9414,-2.0235 -12.4414,-6.0625 -3.5,-4.0352 -5.2617,-9.418 -5.2617,-16.1406 0,-6.2813 1.5976,-11.7344 4.7968,-16.3399 3.1954,-4.6094 7.7657,-6.9141 13.6993,-6.9141 3.2851,0 6.0507,0.7032 8.2695,2.0899 z m -16.1875,32.3516 c 1.9492,3.121 5.0742,4.6718 9.3789,4.6718 3.3438,0 6.0898,-1.4453 8.2422,-4.332 2.1523,-2.8828 3.2266,-7.0352 3.2266,-12.4375 0,-5.3984 -1.1016,-9.4922 -3.3282,-12.1094 -2.2226,-2.6172 -4.9492,-3.9297 -8.2187,-3.9297 -3.6367,0 -6.5821,1.4024 -8.8399,4.1953 -2.2539,2.793 -3.3945,6.8985 -3.3945,12.3321 0,4.6133 0.9766,8.4844 2.9258,11.5976 z m 0,0"
     fill-opacity="1"
     fill-rule="nonzero"
     id="path38" />
  <path
     fill="#0e6133"
     d="m 1009.5469,560.88676 c 3.8203,3.7031 5.7266,9.1523 5.7266,16.3398 0,7.1875 -1.6836,12.6953 -5.0469,17.2344 -3.3555,4.5351 -8.5742,6.8008 -15.63673,6.8008 -5.8946,0 -10.5782,-2.0118 -14.0508,-6.0196 -3.4727,-4.0117 -5.1953,-9.3984 -5.1953,-16.1601 0,-7.2422 1.8242,-13.0078 5.4844,-17.3008 3.6523,-4.3008 8.5507,-6.4414 14.7265,-6.4414 5.51953,0 10.18753,1.8476 14.00393,5.5508 z m -4.4961,28.6679 c 1.7734,-3.6289 2.6524,-7.6797 2.6524,-12.125 0,-4.0195 -0.6407,-7.3008 -1.9219,-9.8164 -2.0156,-3.9687 -5.5,-5.957 -10.43363,-5.957 -4.3828,0 -7.5703,1.6953 -9.5586,5.0742 -1.9883,3.3828 -2.9844,7.4609 -2.9844,12.2344 0,4.7695 0.9961,8.4101 2.9844,11.4687 1.9883,3.0508 5.1523,4.586 9.4805,4.586 4.74613,0 8.00783,-1.8164 9.76953,-5.4532 z m 0,0"
     fill-opacity="1"
     fill-rule="nonzero"
     id="path39" />
  <path
     fill="#0e6133"
     d="m 1024.1758,556.58206 h 6.8945 v 6.1211 c 2.0391,-2.5313 4.2032,-4.336 6.4844,-5.4414 2.2813,-1.1055 4.8203,-1.6563 7.6133,-1.6563 6.1211,0 10.2617,2.1328 12.4141,6.4063 1.1757,2.3359 1.7773,5.6836 1.7773,10.0273 v 27.6758 h -7.3672 v -27.1914 c 0,-2.625 -0.3867,-4.7461 -1.168,-6.3594 -1.2929,-2.6914 -3.625,-4.0312 -7.0156,-4.0312 -1.7187,0 -3.1289,0.1757 -4.2344,0.5273 -1.9921,0.5859 -3.7343,1.7773 -5.2382,3.543 -1.211,1.4218 -1.9883,2.8945 -2.3555,4.4179 -0.3633,1.5196 -0.5469,3.6836 -0.5469,6.5039 v 22.6016 h -7.2461 v -43.1445 z m 0,0"
     fill-opacity="1"
     fill-rule="nonzero"
     id="path40" />
  <path
     fill="#0e6133"
     d="m 1096.7344,557.76566 c 2.8477,1.4453 5.0352,3.3007 6.5234,5.5859 1.4454,2.1719 2.4063,4.7109 2.8829,7.6094 0.4257,1.9922 0.6406,5.1601 0.6406,9.5156 h -31.3867 c 0.1328,4.3945 1.1601,7.918 3.0742,10.5625 1.9219,2.6523 4.8945,3.9805 8.914,3.9805 3.7539,0 6.7618,-1.2578 8.9922,-3.7657 1.25,-1.4609 2.1446,-3.1484 2.6641,-5.0625 h 7.1289 c -0.1914,1.5782 -0.8086,3.3477 -1.875,5.2969 -1.0625,1.9453 -2.2422,3.543 -3.5547,4.7735 -2.1797,2.1445 -4.8945,3.6015 -8.1172,4.3476 -1.7383,0.4297 -3.6914,0.6406 -5.8789,0.6406 -5.3398,0 -9.8633,-1.9492 -13.5703,-5.8671 -3.7148,-3.9063 -5.5625,-9.379 -5.5625,-16.418 0,-7.0469 1.8711,-12.5586 5.6016,-16.8828 3.7343,-4.3242 8.6289,-6.4844 14.6601,-6.4844 3.0469,0 5.9844,0.7187 8.8516,2.1484 z m 2.582,16.9453 c -0.289,-3.1485 -0.9687,-5.6524 -2.039,-7.5352 -1.9649,-3.4922 -5.2578,-5.2383 -9.8672,-5.2383 -3.2969,0 -6.0703,1.2071 -8.3125,3.6055 -2.2422,2.3945 -3.4219,5.457 -3.5508,9.168 z m 0,0"
     fill-opacity="1"
     fill-rule="nonzero"
     id="path41" />
  <path
     fill="#0e6133"
     d="m 1120.2774,586.19136 c 0.2265,2.4141 0.832,4.2696 1.8515,5.5625 1.8633,2.3321 5.0938,3.5 9.7032,3.5 2.7382,0 5.1523,-0.5898 7.2382,-1.7578 2.0782,-1.1679 3.125,-2.9726 3.125,-5.4179 0,-1.8594 -0.832,-3.2578 -2.4961,-4.2383 -1.0664,-0.582 -3.1679,-1.2735 -6.3046,-2.043 l -5.8555,-1.457 c -3.75,-0.9102 -6.4961,-1.9258 -8.2734,-3.0625 -3.168,-1.961 -4.754,-4.668 -4.754,-8.1406 0,-4.0821 1.4961,-7.3907 4.4688,-9.918 2.9844,-2.5234 6.9961,-3.7852 12.0273,-3.7852 6.5899,0 11.3399,1.9063 14.25,5.7227 1.8321,2.418 2.7149,5.0234 2.6641,7.8164 h -6.8555 c -0.1406,-1.625 -0.7304,-3.1133 -1.7773,-4.4453 -1.7031,-1.8985 -4.6602,-2.8438 -8.8672,-2.8438 -2.8047,0 -4.9336,0.5196 -6.3789,1.5625 -1.4375,1.0469 -2.1563,2.4297 -2.1563,4.1368 0,1.875 0.9415,3.3671 2.836,4.496 1.0976,0.668 2.7148,1.2579 4.8437,1.7618 l 4.8828,1.1718 c 5.3047,1.2579 8.8672,2.4844 10.6797,3.6641 2.8203,1.8516 4.2305,4.7695 4.2305,8.7383 0,3.9648 -1.4727,7.1562 -4.4219,9.9453 -2.957,2.793 -7.4414,4.1914 -13.4804,4.1914 -6.4961,0 -11.1055,-1.4609 -13.8086,-4.3711 -2.7071,-2.918 -4.1485,-6.5195 -4.3438,-10.8242 h 6.9727 z m 0,0"
     fill-opacity="1"
     fill-rule="nonzero"
     id="path42" />
  <path
     fill="#0e6133"
     d="m 1157.2266,540.54296 h 7.3672 v 8.2227 h -7.3672 z m 0,16.2305 h 7.3672 v 42.9531 h -7.3672 z m 0,0"
     fill-opacity="1"
     fill-rule="nonzero"
     id="path43" />
  <path
     fill="#0e6133"
     d="m 1198.6914,573.61326 c 1.6641,-0.2109 2.7813,-0.914 3.3399,-2.0898 0.3242,-0.6524 0.4883,-1.5742 0.4883,-2.793 0,-2.4766 -0.8829,-4.2812 -2.6289,-5.3984 -1.7618,-1.1211 -4.2774,-1.6758 -7.543,-1.6758 -3.7774,0 -6.457,1.0234 -8.043,3.0742 -0.8789,1.1328 -1.4609,2.8203 -1.7226,5.0664 h -6.7735 c 0.1367,-5.332 1.8594,-9.0469 5.1719,-11.1367 3.3086,-2.0898 7.1523,-3.1367 11.5312,-3.1367 5.0743,0 9.1797,0.9609 12.3516,2.9023 3.1328,1.9336 4.707,4.9453 4.707,9.0235 v 24.8593 c 0,0.7539 0.1524,1.3633 0.4688,1.8164 0.3125,0.4571 0.9648,0.6797 1.9492,0.6797 0.3242,0 0.6797,-0.016 1.082,-0.062 0.4063,-0.039 0.8321,-0.1015 1.293,-0.1797 v 5.3633 c -1.1289,0.3203 -1.9883,0.5274 -2.5781,0.6055 -0.5899,0.078 -1.3985,0.125 -2.418,0.125 -2.4922,0 -4.3125,-0.8906 -5.4375,-2.6641 -0.5898,-0.9453 -1.0078,-2.2695 -1.2461,-3.9843 -1.4844,1.9257 -3.6094,3.6132 -6.3672,5.0273 -2.7734,1.4219 -5.8164,2.1367 -9.1445,2.1367 -4,0 -7.2695,-1.2187 -9.8164,-3.6484 -2.5469,-2.4219 -3.8047,-5.461 -3.8047,-9.1133 0,-3.9961 1.2461,-7.0898 3.7422,-9.293 2.4961,-2.2031 5.7773,-3.5586 9.8359,-4.0742 l 11.5625,-1.4492 z m -15.2773,19.5899 c 1.5312,1.207 3.3437,1.8047 5.4375,1.8047 2.5508,0 5.0312,-0.586 7.4141,-1.7657 4.0273,-1.9609 6.039,-5.164 6.039,-9.6133 v -5.832 c -0.8828,0.5664 -2.0234,1.0313 -3.4219,1.4102 -1.3867,0.375 -2.7578,0.6523 -4.1015,0.8008 l -4.3828,0.5703 c -2.6289,0.3398 -4.5977,0.9023 -5.9297,1.6406 -2.2422,1.2578 -3.3594,3.2695 -3.3594,6.0273 0,2.0899 0.7656,3.7383 2.293,4.9453 z m 0,0"
     fill-opacity="1"
     fill-rule="nonzero"
     id="path44" />
  <path
     fill="#0e6133"
     d="m 1223.1797,590.94926 h 8.4297 v 8.7773 h -8.4297 z m 0,0"
     fill-opacity="1"
     fill-rule="nonzero"
     id="path45" />
</svg>
