<?xml version="1.0" encoding="UTF-8"?>
<!DOCTYPE svg PUBLIC "-//W3C//DTD SVG 1.1//EN" "http://www.w3.org/Graphics/SVG/1.1/DTD/svg11.dtd">
<!-- Creator: CorelDRAW -->
<svg xmlns="http://www.w3.org/2000/svg" xml:space="preserve" width="425.672mm" height="141.431mm" version="1.1" style="shape-rendering:geometricPrecision; text-rendering:geometricPrecision; image-rendering:optimizeQuality; fill-rule:evenodd; clip-rule:evenodd"
viewBox="0 0 23021.35 7648.96"
 xmlns:xlink="http://www.w3.org/1999/xlink"
 xmlns:xodm="http://www.corel.com/coreldraw/odm/2003"
 zoomAndPan="magnify">
 <defs>
  <style type="text/css">
   <![CDATA[
    .fil0 {fill:black;fill-rule:nonzero}
    .fil1 {fill:#EF3701;fill-rule:nonzero}
   ]]>
  </style>
 </defs>
 <g id="Layer_x0020_1">
  <metadata id="CorelCorpID_0Corel-Layer"/>
  <g id="_2006089842800">
   <g>
    <g>
     <g>
      <path class="fil0" d="M8893.67 4173.17l0 -2459.41 848.42 0 0 259.05 9.54 0c220.6,-220.6 455.51,-330.9 704.73,-330.9 179.02,0 346.85,36.82 503.51,110.3 156.58,73.56 274.86,187.07 354.75,340.44 249.22,-300.49 520.87,-450.74 815.03,-450.74 261.89,0 487.19,73.56 675.82,220.6 188.55,147.12 282.91,377.26 282.91,690.43l0 1620.23 -848.72 0 0 -1390.09c0,-131.17 -36,-240.65 -107.92,-328.52 -71.77,-87.8 -179.61,-131.77 -323.45,-131.77 -124.61,0 -219.7,37.56 -285.29,112.69 -65.43,75.12 -101.36,165.38 -107.92,270.68l0 1467 -848.42 0 0 -1390.09c0,-131.17 -36,-240.65 -107.92,-328.52 -71.99,-87.8 -179.76,-131.77 -323.45,-131.77 -131.02,0 -229.24,40.77 -294.83,122.23 -65.59,81.53 -98.38,178.2 -98.38,290.06l0 1438.08 -848.42 0zm0 0z"/>
     </g>
    </g>
   </g>
   <g>
    <g>
     <g>
      <path class="fil0" d="M13555.85 3880.73c-273.29,-242.81 -409.9,-554.33 -409.9,-934.58 0,-380.39 142.2,-692.81 426.6,-937.26 284.4,-244.6 635.94,-366.98 1054.72,-366.98 412.13,0 759.66,123.12 1042.49,369.36 282.98,246.09 424.51,557.69 424.51,934.87 0,377.04 -138.25,687.74 -414.67,932.19 -276.5,244.45 -627.23,366.68 -1052.33,366.68 -441.06,0 -798.19,-121.41 -1071.41,-364.29zm656.74 -1351.93c-110.3,108.73 -165.45,247.88 -165.45,417.35 0,169.33 52.62,307.58 158,414.67 105.53,106.95 244.6,160.38 417.35,160.38 166.12,0 302.66,-54.33 409.6,-163.06 107.09,-108.66 160.68,-246.09 160.68,-412.29 0,-169.33 -55.15,-308.32 -165.45,-417.06 -110.16,-108.66 -245.05,-163.07 -404.83,-163.07 -162.99,0 -299.6,54.41 -409.9,163.07zm0 0z"/>
     </g>
    </g>
   </g>
   <g>
    <g>
     <g>
      <path class="fil0" d="M17508.42 2337.11c-159.79,0 -297.22,59.17 -412.29,177.37 -115.07,118.28 -172.61,260.47 -172.61,426.6 0,169.33 57.54,313.16 172.61,431.37 115.07,118.27 252.5,177.37 412.29,177.37 76.69,0 149.35,-9.54 217.92,-28.62 68.71,-19.23 119.09,-38.45 151.14,-57.53l43.23 -28.62 287.68 589.37c-22.5,16.09 -53.66,36.22 -93.61,60.22 -39.95,23.85 -131.1,56.56 -273.36,98.08 -142.13,41.51 -294.68,62.31 -457.6,62.31 -361.16,0 -678.35,-127 -951.57,-380.99 -273.29,-254.14 -409.9,-558.66 -409.9,-913.41 0,-357.88 136.61,-665.46 409.9,-922.65 273.22,-257.35 590.41,-386.06 951.57,-386.06 162.92,0 313.09,19.23 450.45,57.54 137.5,38.38 234.98,76.76 292.45,115.07l81.68 57.53 -287.68 580.13c-105.53,-76.69 -242.96,-115.07 -412.29,-115.07zm0 0z"/>
     </g>
    </g>
   </g>
   <g>
    <g>
     <g>
      <path class="fil0" d="M19569.84 2337.11c-159.79,0 -297.22,59.17 -412.29,177.37 -115.07,118.28 -172.6,260.47 -172.6,426.6 0,169.33 57.53,313.16 172.6,431.37 115.07,118.27 252.5,177.37 412.29,177.37 76.69,0 149.35,-9.54 217.92,-28.62 68.71,-19.23 119.09,-38.45 151.14,-57.53l43.23 -28.62 287.68 589.37c-22.5,16.09 -53.66,36.22 -93.61,60.22 -39.95,23.85 -131.09,56.56 -273.36,98.08 -142.12,41.51 -294.68,62.31 -457.6,62.31 -361.16,0 -678.35,-127 -951.57,-380.99 -273.29,-254.14 -409.9,-558.66 -409.9,-913.41 0,-357.88 136.61,-665.46 409.9,-922.65 273.22,-257.35 590.41,-386.06 951.57,-386.06 162.92,0 313.09,19.23 450.45,57.54 137.5,38.38 234.98,76.76 292.45,115.07l81.68 57.53 -287.68 580.13c-105.53,-76.69 -242.96,-115.07 -412.29,-115.07zm0 0z"/>
     </g>
    </g>
   </g>
   <g>
    <g>
     <g>
      <path class="fil0" d="M20490.39 3868.8c-230.14,-251.01 -345.21,-558.66 -345.21,-922.95 0,-364.29 115.07,-672.61 345.21,-925.04 230.14,-252.58 522.59,-378.9 877.34,-378.9 325.91,0 594.28,102.25 805.2,306.76l0 -234.91 848.42 0 0 2459.41 -838.88 0 0 -278.14 -9.54 0c-210.91,233.34 -479.29,349.98 -805.2,349.98 -354.75,0 -647.2,-125.36 -877.34,-376.22zm721.43 -1340.01c-110.3,108.73 -165.45,247.88 -165.45,417.35 0,169.33 52.62,307.58 158,414.67 105.53,106.95 244.6,160.38 417.35,160.38 166.12,0 302.66,-54.33 409.6,-163.06 107.1,-108.66 160.68,-246.09 160.68,-412.29 0,-169.33 -55.15,-308.32 -165.45,-417.06 -110.15,-108.66 -245.05,-163.07 -404.83,-163.07 -162.99,0 -299.6,54.41 -409.9,163.07zm0 0z"/>
     </g>
    </g>
   </g>
   <path class="fil1" d="M3694.79 4353.56c159.04,23.03 310.63,-23.77 454.84,-140.33 239.83,-193.85 462.07,-373.09 666.65,-537.72 57.24,-46.58 122.75,-83.17 196.38,-109.71 5.88,-2.23 11.92,-3.73 18.18,-4.54 6.26,-0.82 12.52,-0.97 18.78,-0.37 6.26,0.52 12.44,1.79 18.4,3.73 6.04,1.94 11.7,4.47 17.14,7.67 5.44,3.21 10.43,6.93 15.05,11.25 4.62,4.32 8.65,9.02 12.22,14.23 3.5,5.22 6.48,10.74 8.8,16.62 2.31,5.89 3.95,11.93 4.92,18.11 32.2,194.07 49.86,389.71 109.71,572.29 236.25,718.97 747.66,1066.49 1534.15,1042.49 162.17,-5.14 319.95,-12.07 473.32,-20.72 5.52,-0.3 10.96,0.08 16.4,1.12 5.36,1.04 10.58,2.68 15.58,5.07 4.99,2.31 9.62,5.14 13.94,8.65 4.25,3.43 8.12,7.38 11.4,11.77 3.35,4.4 6.11,9.09 8.27,14.16 2.16,5.07 3.73,10.29 4.62,15.73 0.82,5.44 1.04,10.88 0.6,16.4 -0.45,5.51 -1.57,10.88 -3.28,16.09 -227.09,679.1 -603.97,1205.86 -1130.73,1580.21 -286.33,203.53 -653.83,380.69 -1102.26,531.6 -1297.23,436.43 -2805.29,256.15 -3768.79,-791.63 -274.11,-298.18 -538.98,-634.68 -794.69,-1009.55 -196.9,-288.95 -322.48,-560.22 -376.66,-813.92 -130.94,-610.08 -168.5,-1231.64 -112.76,-1864.76 31.15,-350.35 107.92,-655.92 230.14,-916.69 140.11,-297.66 303.48,-574.09 490.17,-829.27 362.05,-494.79 959.62,-749.45 1547.19,-948.14 976.84,-330.83 1939.51,-337.76 2888.17,-20.72 505.74,169.33 917.65,402.01 1235.74,698.1 521.7,485.55 945.91,1119.93 1102.34,1810.35 97.41,434.2 187.96,894.4 106.65,1336.28 -46.06,250.86 -699.59,449.55 -922.8,494.79 -634.38,128.86 -827.7,-369.73 -845.37,-871.45 -12.3,-351.84 -55.97,-685.51 -131.17,-1001.05 -51.42,-214.79 -136.53,-345.21 -383.51,-256.23 -442.62,159.56 -717.26,510.14 -1077.82,790.88 -5.22,4.1 -10.81,7.53 -16.85,10.29 -5.96,2.68 -12.22,4.69 -18.78,5.88 -6.48,1.27 -13.04,1.71 -19.6,1.34 -6.63,-0.37 -13.11,-1.49 -19.38,-3.42 -6.33,-1.94 -12.37,-4.55 -18.03,-7.98 -5.74,-3.35 -10.88,-7.3 -15.65,-12 -4.69,-4.62 -8.79,-9.76 -12.3,-15.35 -3.5,-5.59 -6.26,-11.55 -8.27,-17.89 -20.94,-63.42 -32.49,-127.29 -34.5,-191.76 -11.25,-312.94 -24.82,-634.67 -40.69,-964.98 -10.21,-225.07 -61.86,-442.62 -154.94,-652.79 -170.3,-383.6 -614.41,-639 -1017.9,-424.21 -272.1,144.65 -498.66,338.8 -679.69,582.21 -434.2,583.48 -795.95,1316.31 -1085.42,2198.49 -91.3,279.25 -15.35,617.53 360.49,566.85 262.41,-35.77 441.65,-168.95 537.79,-399.61 150.85,-361.54 313.47,-741.77 487.86,-1140.72 164.18,-375.09 353.63,-800.8 599.12,-1083.11 90.48,-104.34 148.31,-88.46 173.35,47.55 86.68,473.32 30.63,968.86 83.62,1455.23 26.53,242.88 52.17,480.92 76.69,714.12 17.37,167.24 81.53,307.36 192.51,420.41 16.92,16.85 37.11,27.06 60.66,30.63zm-148.83 1592.51c-386.13,-48.07 -793.2,-205.55 -1221.21,-472.5 -332.92,-207.11 -724.19,-761.75 -1180.59,-612.92 -33.24,11.25 -51.12,34.28 -53.73,69.01 -29.89,481 749.52,1102.34 1144.52,1320.18 638.25,351.84 1363.41,473.03 2175.54,363.62 488.6,-65.96 1275.69,-362.05 1468.94,-856.84 1.94,-4.85 3.5,-9.84 4.77,-14.83 1.34,-5.07 2.31,-10.14 2.99,-15.28 0.67,-5.14 1.11,-10.36 1.19,-15.58 0.08,-5.14 -0.15,-10.36 -0.67,-15.58 -0.52,-5.14 -1.34,-10.29 -2.46,-15.35 -1.19,-5.07 -2.61,-10.06 -4.32,-14.98 -1.71,-4.92 -3.73,-9.69 -5.96,-14.38 -2.31,-4.69 -4.85,-9.17 -7.68,-13.56 -2.76,-4.4 -5.81,-8.57 -9.17,-12.6 -3.28,-4.02 -6.78,-7.83 -10.58,-11.4 -3.73,-3.66 -7.67,-7.01 -11.85,-10.14 -4.1,-3.13 -8.42,-6.04 -12.96,-8.64 -4.47,-2.61 -9.1,-4.99 -13.87,-7.08 -4.77,-2.09 -9.61,-3.88 -14.61,-5.36 -4.99,-1.49 -9.98,-2.76 -15.13,-3.66 -5.14,-0.89 -10.29,-1.56 -15.5,-1.86 -267.7,-15.35 -514.69,41.44 -760.93,147.27 -485.32,208.68 -970.87,282.83 -1456.72,222.46zm0 0z"/>
   <g>
    <g>
     <g>
      <path class="fil0" d="M8938.09 5331.37l-17.29 50.68 -16.99 -50.68 -143.98 -387.54 -93.31 0 0 507.38 60.51 0 0 -336.27 -2.09 -91.82 33.39 79.59 131.17 348.5 62.9 0 121.04 -336.87 36.37 -90.63 -1.49 91.22 0 336.27 60.51 0 0 -507.38 -91.82 0 -138.92 387.54zm0 0z"/>
     </g>
    </g>
   </g>
   <g>
    <g>
     <g>
      <path class="fil0" d="M9718.21 5451.21l-196.16 -507.38 -74.82 0 -196.46 507.38 70.36 0 54.86 -149.06 215.23 0 53.36 149.06 73.63 0zm-250.11 -398.87l16.99 -52.77 16.4 52.77 69.16 192.28 -173.2 0 70.65 -192.28zm0 0z"/>
     </g>
    </g>
   </g>
   <g>
    <g>
     <g>
      <path class="fil0" d="M10177.59 5289.34c-5.07,-46.81 -33.39,-76.02 -77.81,-84.67 53.66,-14.91 90.63,-61.11 90.63,-126.7 0,-81.38 -58.43,-134.15 -155.31,-134.15l-235.21 0 0 507.38 66.18 0 0 -218.82 156.81 0c59.32,0 84.96,23.55 91.22,83.47l14.91 135.35 67.07 0 -18.48 -161.87zm-311.53 -114.48l0 -173.2 157.7 0c64.09,0 98.98,29.22 98.98,82.58 0,57.83 -41.44,90.63 -110.6,90.63l-146.07 0zm0 0z"/>
     </g>
    </g>
   </g>
   <g>
    <g>
     <g>
      <path class="fil0" d="M10722.52 4943.83l-88.24 0 -258.17 248.62 0 -248.62 -66.18 0 0 507.38 66.18 0 0 -177.38 85.56 -83.47 64.99 88.54 127.59 172.31 82.57 0 -228.65 -302.88 214.34 -204.5zm0 0z"/>
     </g>
    </g>
   </g>
   <g>
    <g>
     <g>
      <path class="fil0" d="M10884.74 5218.98l270.09 0 0 -57.84 -270.09 0 0 -159.49 293.05 0 0 -57.83 -359.23 0 0 507.38 365.48 0 0 -57.84 -299.3 0 0 -174.39zm0 0z"/>
     </g>
    </g>
   </g>
   <g>
    <g>
     <g>
      <path class="fil0" d="M11255.39 4943.83l0 57.83 169.33 0 0 449.55 66.48 0 0 -449.55 169.62 0 0 -57.83 -405.43 0zm0 0z"/>
     </g>
    </g>
   </g>
   <g>
    <g>
     <g>
      <path class="fil0" d="M11812.25 5451.21l0 -507.38 -66.18 0 0 507.38 66.18 0zm0 0z"/>
     </g>
    </g>
   </g>
   <g>
    <g>
     <g>
      <path class="fil0" d="M12274.16 5287.25c0,28.02 0,51.28 0.59,73.34 -12.82,-21.17 -26.23,-42.63 -39.95,-64.1l-228.05 -352.66 -73.34 0 0 507.38 62.61 0 0 -343.42c0,-26.24 0,-49.79 -0.6,-71.25 12.82,20.57 25.64,42.04 39.35,62.61l226.57 352.07 75.42 0 0 -507.38 -62.6 0 0 343.42zm0 0z"/>
     </g>
    </g>
   </g>
   <g>
    <g>
     <g>
      <path class="fil0" d="M12911.74 5179.63l-219.71 0 0 57.83 154.12 0 0 27.73c-17.89,84.96 -73.34,138.92 -161.87,138.92 -109.7,0 -173.8,-83.17 -173.8,-205.7 0,-125.5 64.1,-204.5 180.36,-204.5 71.84,0 132.36,30.41 147.27,103.15l64.39 -4.18c-16.39,-98.38 -99.86,-158.29 -215.23,-158.29 -154.12,0 -244.45,105.53 -244.45,261.44 0,166.05 101.06,267.41 239.98,267.41 74.82,0 130.57,-29.21 165.45,-80.49l14.91 68.27 48.59 0 0 -271.58zm0 0z"/>
     </g>
    </g>
   </g>
   <g>
    <g>
     <g>
     </g>
    </g>
   </g>
   <g>
    <g>
     <g>
      <path class="fil0" d="M13439.58 5463.43c118.95,0 197.35,-74.82 214.34,-196.75l-65.59 0c-12.22,91.22 -67.07,137.43 -146.67,137.43 -103.44,0 -163.96,-79.59 -163.96,-206.59 0,-126.7 61.41,-203.61 163.96,-203.61 69.76,0 122.52,36.37 138.03,103.15l67.67 0c-15.5,-99.57 -102.55,-162.47 -208.68,-162.47 -139.52,0 -228.65,107.62 -228.65,262.93 0,153.83 87.05,265.91 229.54,265.91zm0 0z"/>
     </g>
    </g>
   </g>
   <g>
    <g>
     <g>
      <path class="fil0" d="M13970.87 5463.43c142.5,0 239.98,-109.11 239.98,-265.91 0,-153.83 -97.48,-262.93 -239.98,-262.93 -141.9,0 -239.38,109.11 -239.38,262.93 0,155.31 97.48,265.91 239.38,265.91zm0.6 -59.32c-101.06,0 -172.31,-80.49 -172.31,-206.59 0,-124.61 71.25,-203.61 172.31,-203.61 100.46,0 171.71,79 171.71,203.61 0,127.59 -69.76,206.59 -171.71,206.59zm0 0z"/>
     </g>
    </g>
   </g>
   <g>
    <g>
     <g>
      <path class="fil0" d="M14588.57 5331.37l-17.29 50.68 -16.99 -50.68 -143.99 -387.54 -93.31 0 0 507.38 60.52 0 0 -336.27 -2.09 -91.82 33.39 79.59 131.17 348.5 62.9 0 121.03 -336.87 36.37 -90.63 -1.49 91.22 0 336.27 60.51 0 0 -507.38 -91.82 0 -138.92 387.54zm0 0z"/>
     </g>
    </g>
   </g>
   <g>
    <g>
     <g>
      <path class="fil0" d="M15211.89 5331.37l-17.29 50.68 -16.99 -50.68 -143.99 -387.54 -93.31 0 0 507.38 60.52 0 0 -336.27 -2.09 -91.82 33.39 79.59 131.17 348.5 62.9 0 121.03 -336.87 36.37 -90.63 -1.49 91.22 0 336.27 60.52 0 0 -507.38 -91.82 0 -138.92 387.54zm0 0z"/>
     </g>
    </g>
   </g>
   <g>
    <g>
     <g>
      <path class="fil0" d="M15759.49 5462.54c123.42,0 196.16,-61.11 196.16,-171.71l0 -347 -66.48 0 0 349.09c0,69.16 -41.14,110.6 -129.68,110.6 -88.24,0 -129.68,-41.44 -129.68,-110.6l0 -349.09 -66.18 0 0 347c0,110.6 72.74,171.71 195.86,171.71zm0 0z"/>
     </g>
    </g>
   </g>
   <g>
    <g>
     <g>
      <path class="fil0" d="M16417.28 5287.25c0,28.02 0,51.28 0.59,73.34 -12.82,-21.17 -26.23,-42.63 -39.95,-64.1l-228.05 -352.66 -73.34 0 0 507.38 62.61 0 0 -343.42c0,-26.24 0,-49.79 -0.59,-71.25 12.82,20.57 25.64,42.04 39.35,62.61l226.56 352.07 75.42 0 0 -507.38 -62.61 0 0 343.42zm0 0z"/>
     </g>
    </g>
   </g>
   <g>
    <g>
     <g>
      <path class="fil0" d="M16667.02 5451.21l0 -507.38 -66.18 0 0 507.38 66.18 0zm0 0z"/>
     </g>
    </g>
   </g>
   <g>
    <g>
     <g>
      <path class="fil0" d="M17002.83 5463.43c118.94,0 197.35,-74.82 214.34,-196.75l-65.59 0c-12.22,91.22 -67.07,137.43 -146.67,137.43 -103.45,0 -163.96,-79.59 -163.96,-206.59 0,-126.7 61.41,-203.61 163.96,-203.61 69.76,0 122.52,36.37 138.02,103.15l67.67 0c-15.5,-99.57 -102.55,-162.47 -208.68,-162.47 -139.52,0 -228.65,107.62 -228.65,262.93 0,153.83 87.05,265.91 229.55,265.91zm0 0z"/>
     </g>
    </g>
   </g>
   <g>
    <g>
     <g>
      <path class="fil0" d="M17738.03 5451.21l-196.16 -507.38 -74.83 0 -196.45 507.38 70.36 0 54.85 -149.06 215.24 0 53.36 149.06 73.63 0zm-250.11 -398.87l16.99 -52.77 16.39 52.77 69.17 192.28 -173.2 0 70.65 -192.28zm0 0z"/>
     </g>
    </g>
   </g>
   <g>
    <g>
     <g>
      <path class="fil0" d="M17784.22 4943.83l0 57.83 169.33 0 0 449.55 66.48 0 0 -449.55 169.63 0 0 -57.83 -405.43 0zm0 0z"/>
     </g>
    </g>
   </g>
   <g>
    <g>
     <g>
      <path class="fil0" d="M18341.08 5451.21l0 -507.38 -66.18 0 0 507.38 66.18 0zm0 0z"/>
     </g>
    </g>
   </g>
   <g>
    <g>
     <g>
      <path class="fil0" d="M18686.73 5463.43c142.5,0 239.98,-109.11 239.98,-265.91 0,-153.83 -97.48,-262.93 -239.98,-262.93 -141.9,0 -239.38,109.11 -239.38,262.93 0,155.31 97.48,265.91 239.38,265.91zm0.6 -59.32c-101.06,0 -172.31,-80.49 -172.31,-206.59 0,-124.61 71.25,-203.61 172.31,-203.61 100.46,0 171.71,79 171.71,203.61 0,127.59 -69.76,206.59 -171.71,206.59zm0 0z"/>
     </g>
    </g>
   </g>
   <g>
    <g>
     <g>
      <path class="fil0" d="M19373.6 5287.25c0,28.02 0,51.28 0.59,73.34 -12.82,-21.17 -26.24,-42.63 -39.95,-64.1l-228.05 -352.66 -73.33 0 0 507.38 62.6 0 0 -343.42c0,-26.24 0,-49.79 -0.59,-71.25 12.82,20.57 25.64,42.04 39.35,62.61l226.56 352.07 75.42 0 0 -507.38 -62.6 0 0 343.42zm0 0z"/>
     </g>
    </g>
   </g>
   <g>
    <g>
     <g>
      <path class="fil0" d="M9094.89 6261.1l-196.16 -507.38 -74.82 0 -196.45 507.38 70.35 0 54.86 -149.06 215.24 0 53.36 149.06 73.63 0zm-250.11 -398.87l16.99 -52.77 16.4 52.77 69.16 192.28 -173.2 0 70.65 -192.28zm0 0z"/>
     </g>
    </g>
   </g>
   <g>
    <g>
     <g>
      <path class="fil0" d="M9517.3 6097.14c0,28.02 0,51.28 0.59,73.34 -12.82,-21.17 -26.23,-42.63 -39.95,-64.09l-228.05 -352.67 -73.34 0 0 507.38 62.61 0 0 -343.42c0,-26.24 0,-49.79 -0.6,-71.25 12.82,20.57 25.64,42.03 39.35,62.6l226.57 352.07 75.42 0 0 -507.38 -62.61 0 0 343.42zm0 0z"/>
     </g>
    </g>
   </g>
   <g>
    <g>
     <g>
      <path class="fil0" d="M9873.47 5753.72l-172.6 0 0 507.38 158.3 0c171.71,0 247.73,-100.46 247.73,-253.7 0,-155.91 -73.34,-253.69 -233.43,-253.69zm-106.42 449.55l0 -391.72 89.13 0c126.1,0 183.04,61.11 183.04,195.86 0,131.77 -53.96,195.86 -186.62,195.86l-85.56 0zm0 0z"/>
     </g>
    </g>
   </g>
   <g>
    <g>
     <g>
     </g>
    </g>
   </g>
   <g>
    <g>
     <g>
      <path class="fil0" d="M10615.76 6273.33c118.94,0 197.35,-74.83 214.34,-196.76l-65.58 0c-12.22,91.23 -67.08,137.43 -146.67,137.43 -103.44,0 -163.96,-79.59 -163.96,-206.59 0,-126.69 61.41,-203.61 163.96,-203.61 69.76,0 122.52,36.37 138.02,103.15l67.67 0c-15.51,-99.57 -102.55,-162.47 -208.68,-162.47 -139.52,0 -228.66,107.62 -228.66,262.93 0,153.83 87.05,265.92 229.55,265.92zm0 0z"/>
     </g>
    </g>
   </g>
   <g>
    <g>
     <g>
      <path class="fil0" d="M11300.28 6099.23c-5.07,-46.8 -33.39,-76.02 -77.8,-84.67 53.66,-14.91 90.63,-61.11 90.63,-126.7 0,-81.38 -58.43,-134.15 -155.32,-134.15l-235.21 0 0 507.38 66.18 0 0 -218.82 156.81 0c59.32,0 84.96,23.55 91.22,83.47l14.91 135.35 67.07 0 -18.49 -161.87zm-311.53 -114.48l0 -173.2 157.7 0c64.09,0 98.97,29.22 98.97,82.58 0,57.84 -41.44,90.63 -110.6,90.63l-146.08 0zm0 0z"/>
     </g>
    </g>
   </g>
   <g>
    <g>
     <g>
      <path class="fil0" d="M11498.81 6028.87l270.09 0 0 -57.84 -270.09 0 0 -159.49 293.04 0 0 -57.83 -359.22 0 0 507.38 365.48 0 0 -57.84 -299.3 0 0 -174.39zm0 0z"/>
     </g>
    </g>
   </g>
   <g>
    <g>
     <g>
      <path class="fil0" d="M12333.31 6261.1l-196.16 -507.38 -74.82 0 -196.46 507.38 70.36 0 54.85 -149.06 215.24 0 53.36 149.06 73.63 0zm-250.11 -398.87l16.99 -52.77 16.4 52.77 69.16 192.28 -173.2 0 70.65 -192.28zm0 0z"/>
     </g>
    </g>
   </g>
   <g>
    <g>
     <g>
      <path class="fil0" d="M12379.5 5753.72l0 57.83 169.33 0 0 449.55 66.48 0 0 -449.55 169.62 0 0 -57.83 -405.43 0zm0 0z"/>
     </g>
    </g>
   </g>
   <g>
    <g>
     <g>
      <path class="fil0" d="M12936.36 6261.1l0 -507.38 -66.18 0 0 507.38 66.18 0zm0 0z"/>
     </g>
    </g>
   </g>
   <g>
    <g>
     <g>
      <path class="fil0" d="M13265.61 6114.43l-25.04 76.91 -24.74 -76.91 -124.02 -360.71 -73.34 0 183.04 507.38 76.32 0 181.55 -507.38 -70.65 0 -123.12 360.71zm0 0z"/>
     </g>
    </g>
   </g>
   <g>
    <g>
     <g>
      <path class="fil0" d="M13607.41 6028.87l270.09 0 0 -57.84 -270.09 0 0 -159.49 293.04 0 0 -57.83 -359.22 0 0 507.38 365.48 0 0 -57.84 -299.3 0 0 -174.39zm0 0z"/>
     </g>
    </g>
   </g>
   <g>
    <g>
     <g>
     </g>
    </g>
   </g>
   <g>
    <g>
     <g>
      <path class="fil0" d="M14634.25 6261.1l-196.16 -507.38 -74.82 0 -196.45 507.38 70.35 0 54.86 -149.06 215.23 0 53.36 149.06 73.63 0zm-250.11 -398.87l16.99 -52.77 16.4 52.77 69.16 192.28 -173.2 0 70.65 -192.28zm0 0z"/>
     </g>
    </g>
   </g>
   <g>
    <g>
     <g>
      <path class="fil0" d="M15169.94 5989.52l-219.7 0 0 57.83 154.12 0 0 27.73c-17.89,84.96 -73.33,138.92 -161.87,138.92 -109.7,0 -173.79,-83.17 -173.79,-205.69 0,-125.51 64.09,-204.51 180.35,-204.51 71.84,0 132.36,30.41 147.27,103.15l64.39 -4.17c-16.39,-98.38 -99.86,-158.3 -215.23,-158.3 -154.12,0 -244.45,105.53 -244.45,261.45 0,166.04 101.06,267.41 239.98,267.41 74.82,0 130.57,-29.22 165.45,-80.49l14.91 68.27 48.59 0 0 -271.58zm0 0z"/>
     </g>
    </g>
   </g>
   <g>
    <g>
     <g>
      <path class="fil0" d="M15356.98 6028.87l270.09 0 0 -57.84 -270.09 0 0 -159.49 293.04 0 0 -57.83 -359.22 0 0 507.38 365.48 0 0 -57.84 -299.3 0 0 -174.39zm0 0z"/>
     </g>
    </g>
   </g>
   <g>
    <g>
     <g>
      <path class="fil0" d="M16103.84 6097.14c0,28.02 0,51.28 0.6,73.34 -12.82,-21.17 -26.24,-42.63 -39.95,-64.09l-228.05 -352.67 -73.34 0 0 507.38 62.61 0 0 -343.42c0,-26.24 0,-49.79 -0.59,-71.25 12.82,20.57 25.64,42.03 39.35,62.6l226.56 352.07 75.42 0 0 -507.38 -62.61 0 0 343.42zm0 0z"/>
     </g>
    </g>
   </g>
   <g>
    <g>
     <g>
      <path class="fil0" d="M16502.04 6273.33c118.94,0 197.35,-74.83 214.34,-196.76l-65.59 0c-12.22,91.23 -67.07,137.43 -146.67,137.43 -103.45,0 -163.96,-79.59 -163.96,-206.59 0,-126.69 61.41,-203.61 163.96,-203.61 69.76,0 122.52,36.37 138.02,103.15l67.67 0c-15.51,-99.57 -102.55,-162.47 -208.68,-162.47 -139.51,0 -228.65,107.62 -228.65,262.93 0,153.83 87.05,265.92 229.55,265.92zm0 0z"/>
     </g>
    </g>
   </g>
   <g>
    <g>
     <g>
      <path class="fil0" d="M17017.53 5961.8l-22.06 37.86 -22.06 -37.86 -130.27 -208.08 -79.89 0 198.84 299.3 0 208.08 66.18 0 0 -208.08 192.58 -299.3 -75.72 0 -127.59 208.08zm0 0z"/>
     </g>
    </g>
   </g>
  </g>
 </g>
</svg>
